<svg xmlns="http://www.w3.org/2000/svg" viewBox="0 0 600 600"><defs><style>.a{opacity:0.25;}.b{opacity:0.3;}</style></defs><title>default</title><g class="a"><rect width="600" height="600"/></g><g class="b"><path d="M246.39,245.4q0-6.93,4.34-10.74a15.39,15.39,0,0,1,10.5-3.81,14.82,14.82,0,0,1,10.25,3.86q4.31,3.85,4.3,10.69,0,5.47-4.69,10.06t-10.15,4.59a13.87,13.87,0,0,1-10.26-4.4A14.21,14.21,0,0,1,246.39,245.4Zm14.84,93.85a15.22,15.22,0,0,1-10.45-3.91q-4.4-3.9-4.39-10.94a14.16,14.16,0,0,1,4.2-10.25,13.91,13.91,0,0,1,10.35-4.3,14.49,14.49,0,0,1,10.5,4.25,13.89,13.89,0,0,1,4.34,10.3q0,6.94-4.34,10.89A14.67,14.67,0,0,1,261.23,339.25Z"/><path d="M305,285.05a142.42,142.42,0,0,1,2.54-27.59,132.77,132.77,0,0,1,7.71-25.29A182.65,182.65,0,0,1,328,207.22a71.26,71.26,0,0,1,7.71-11,14,14,0,0,1,5.91-4.2,25.87,25.87,0,0,1,7.18-.83q4.79,0,4.78,2.64c0,.58-1.49,4.12-4.49,10.59s-5.81,13.27-8.45,20.36a193.65,193.65,0,0,0-7.32,26.57,169.37,169.37,0,0,0-.05,67,197.72,197.72,0,0,0,7.57,27.25q4.25,11.52,8.5,20.65t4.24,9.91q0,2.64-4.78,2.64a23.51,23.51,0,0,1-7.28-.93,14.41,14.41,0,0,1-5.81-4.34A86.5,86.5,0,0,1,328,362.59a198.63,198.63,0,0,1-12.75-24.86,132,132,0,0,1-7.66-24.85A138.66,138.66,0,0,1,305,285.05Z"/></g></svg>